HIERARCHY
ROOT Hips
{
	OFFSET 53.933701 -16.431116 94.341499
	CHANNELS 6 Xposition Yposition Zposition Xrotation Yrotation Zrotation
	JOINT spine
	{
		OFFSET 0.000000 -0.448574 7.800591
		CHANNELS 3 Xrotation Yrotation Zrotation
		JOINT spine1
		{
			OFFSET 0.000000 -0.000002 10.136398
			CHANNELS 3 Xrotation Yrotation Zrotation
			JOINT spine2
			{
				OFFSET 0.000000 0.000000 9.712509
				CHANNELS 3 Xrotation Yrotation Zrotation
				JOINT Neck
				{
					OFFSET 0.000000 -1.188875 24.936096
					CHANNELS 3 Xrotation Yrotation Zrotation
					JOINT Head
					{
						OFFSET 0.000000 0.000000 7.533844
						CHANNELS 3 Xrotation Yrotation Zrotation
						End Site
						{
							OFFSET 0.000000 6.014016 18.236099
						}
					}
				}
				JOINT RightShoulder
				{
					OFFSET -4.089649 0.569454 10.488800
					CHANNELS 3 Xrotation Yrotation Zrotation
					JOINT RightArm
					{
						OFFSET 0.000000 -0.000002 13.757004
						CHANNELS 3 Xrotation Yrotation Zrotation
						JOINT RightArmRoll
						{
							OFFSET 0.000000 -0.000002 6.944778
							CHANNELS 3 Xrotation Yrotation Zrotation
							JOINT RightForeArm
							{
								OFFSET 0.000000 -0.000004 20.227692
								CHANNELS 3 Xrotation Yrotation Zrotation
								JOINT RightForeArmRoll
								{
									OFFSET 0.000000 0.000000 7.793121
									CHANNELS 3 Xrotation Yrotation Zrotation
									JOINT RightHand
									{
										OFFSET 0.000000 -0.000004 15.639099
										CHANNELS 3 Xrotation Yrotation Zrotation
										End Site
										{
											OFFSET 0.000000 0.000000 0.100006
										}
									}
								}
							}
						}
					}
				}
				JOINT LeftShoulder
				{
					OFFSET 4.089649 0.569454 10.488800
					CHANNELS 3 Xrotation Yrotation Zrotation
					JOINT LeftArm
					{
						OFFSET 0.000000 -0.000002 13.757004
						CHANNELS 3 Xrotation Yrotation Zrotation
						JOINT LeftArmRoll
						{
							OFFSET 0.000000 -0.000002 6.944778
							CHANNELS 3 Xrotation Yrotation Zrotation
							JOINT LeftForeArm
							{
								OFFSET 0.000000 -0.000004 20.227692
								CHANNELS 3 Xrotation Yrotation Zrotation
								JOINT LeftForeArmRoll
								{
									OFFSET 0.000000 0.000000 7.793121
									CHANNELS 3 Xrotation Yrotation Zrotation
									JOINT LeftHand
									{
										OFFSET 0.000000 -0.000004 15.639099
										CHANNELS 3 Xrotation Yrotation Zrotation
										End Site
										{
											OFFSET 0.000000 0.000000 0.100006
										}
									}
								}
							}
						}
					}
				}
			}
		}
	}
	JOINT RightUpLeg
	{
		OFFSET -6.914162 1.063580 -1.267883
		CHANNELS 3 Xrotation Yrotation Zrotation
		JOINT RightUpLegRoll
		{
			OFFSET 0.000000 -0.000003 18.337799
			CHANNELS 3 Xrotation Yrotation Zrotation
			JOINT RightLeg
			{
				OFFSET 0.000000 0.000004 -22.708504
				CHANNELS 3 Xrotation Yrotation Zrotation
				JOINT RightLegRoll
				{
					OFFSET 0.000000 -0.000004 22.782799
					CHANNELS 3 Xrotation Yrotation Zrotation
					JOINT RightFoot
					{
						OFFSET 0.000000 -0.000003 18.962898
						CHANNELS 3 Xrotation Yrotation Zrotation
						JOINT RightToeBase
						{
							OFFSET 0.000000 -0.000003 15.852005
							CHANNELS 3 Xrotation Yrotation Zrotation
							End Site
							{
								OFFSET 0.006718 0.884892 7.677017
							}
						}
					}
				}
			}
		}
	}
	JOINT LeftUpLeg
	{
		OFFSET 6.914162 1.063580 -1.267883
		CHANNELS 3 Xrotation Yrotation Zrotation
		JOINT LeftUpLegRoll
		{
			OFFSET 0.000000 -0.000003 18.337898
			CHANNELS 3 Xrotation Yrotation Zrotation
			JOINT LeftLeg
			{
				OFFSET 0.000000 -0.000004 22.708405
				CHANNELS 3 Xrotation Yrotation Zrotation
				JOINT LeftLegRoll
				{
					OFFSET 0.000000 -0.000004 22.993393
					CHANNELS 3 Xrotation Yrotation Zrotation
					JOINT LeftFoot
					{
						OFFSET 0.000000 -0.000003 18.752197
						CHANNELS 3 Xrotation Yrotation Zrotation
						JOINT LeftToeBase
						{
							OFFSET 0.000000 -0.000003 15.852005
							CHANNELS 3 Xrotation Yrotation Zrotation
							End Site
							{
								OFFSET -0.030113 0.884892 7.677017
							}
						}
					}
				}
			}
		}
	}
}
MOTION
Frames: 9
Frame Time: 0.041667
54.003098 -17.063313 94.314301 -6.722406 0.130960 -2.560584 -1.531034 0.228313 0.367605 0.941322 0.443295 0.735569 2.586360 0.451945 0.730095 20.478796 -3.310327 -1.448664 -15.919764 -9.713799 -1.860199 -16.892313 -76.084803 -20.163106 119.733421 -59.131393 52.219603 0.000002 -0.000001 -0.000003 116.643088 13.708144 -34.393602 -0.000003 0.000006 -3.000001 -5.000199 -7.998817 0.000174 3.814273 64.764632 -3.594124 -39.212160 116.076729 54.000029 0.000001 -0.000011 0.000001 114.448924 -1.924310 13.209947 0.000002 -0.000009 3.000001 -4.999723 7.998748 -0.000042 3.353668 -176.281363 1.170671 -179.999991 0.000005 -1.015999 171.708920 -1.039028 -0.680410 -0.000002 0.000000 -0.010643 68.969392 5.786024 4.996460 25.456960 -7.355613 0.000002 3.873715 178.979343 5.807172 -0.000005 -0.000004 -1.355419 -9.647976 4.869590 0.609093 -0.000004 -0.000003 -0.184399 72.422531 -7.403160 -0.426738 25.456964 7.355615 -0.000001 
54.011395 -17.057117 94.311409 -6.715714 0.123515 -2.571776 -1.532443 0.227772 0.366390 0.938124 0.441410 0.732787 2.583160 0.450055 0.727324 20.460993 -3.231936 -1.454342 -15.867561 -9.780389 -1.861829 -16.804808 -76.025285 -20.068173 119.852171 -59.127534 52.593003 -0.000000 0.000002 0.000001 116.783695 13.658219 -34.431390 -0.000005 0.000005 -2.999999 -5.000203 -7.998815 0.000174 3.818565 64.801577 -3.593843 -39.244102 116.059613 53.751816 0.000001 -0.000011 0.000001 114.478007 -1.890225 13.108070 0.000002 -0.000007 3.000001 -4.999727 7.998747 -0.000042 3.345915 -176.270353 1.175537 -179.999991 0.000005 -1.016000 171.710150 -1.040018 -0.680533 -0.000001 0.000000 -0.010584 68.966490 5.783676 5.001872 25.456959 -7.355614 0.000000 3.877852 178.989328 5.815326 -0.000005 -0.000004 -1.355409 -9.632314 4.870053 0.608547 -0.000004 -0.000003 -0.183939 72.420817 -7.402411 -0.428434 25.456967 7.355616 -0.000001 
54.017498 -17.061520 94.311996 -6.709493 0.116105 -2.583021 -1.533782 0.227277 0.365272 0.935095 0.439697 0.730239 2.580129 0.448341 0.724784 20.444465 -3.154965 -1.459940 -15.817012 -9.845571 -1.863433 -16.722851 -75.969346 -19.979229 119.968803 -59.123531 52.962205 -0.000000 0.000001 -0.000001 116.921869 13.608601 -34.467832 -0.000002 0.000010 -2.999998 -5.000200 -7.998815 0.000173 3.820986 64.837360 -3.591593 -39.274769 116.043288 53.511684 -0.000003 -0.000012 -0.000002 114.504358 -1.857093 13.009325 0.000003 -0.000009 3.000000 -4.999725 7.998745 -0.000042 3.338741 -176.259343 1.180520 -179.999991 0.000004 -1.015002 171.711461 -1.041008 -0.680653 -0.000001 0.000000 -0.010526 68.963696 5.781371 5.007092 25.456960 -7.355613 0.000001 3.882831 178.999314 5.823515 -0.000005 -0.000004 -1.355390 -9.616221 4.870371 0.607976 -0.000004 -0.000003 -0.183484 72.418658 -7.401663 -0.430361 25.456965 7.355615 -0.000001 
54.016598 -17.061115 94.315300 -6.703780 0.108829 -2.594138 -1.535036 0.226844 0.364295 0.932251 0.438216 0.728016 2.577290 0.446859 0.722570 20.429340 -3.081026 -1.465426 -15.768970 -9.908053 -1.865105 -16.648938 -75.918673 -19.898955 120.075340 -59.121325 53.315859 -0.000000 -0.000001 -0.000001 117.058610 13.560386 -34.504326 -0.000002 0.000007 -3.000001 -5.000206 -7.998813 0.000177 3.821172 64.871306 -3.587082 -39.302165 116.029478 53.278877 -0.000002 -0.000012 -0.000001 114.527751 -1.825397 12.913815 0.000003 -0.000008 3.000000 -4.999721 7.998746 -0.000041 3.332187 -176.248332 1.185571 -179.999991 0.000005 -1.015003 171.712814 -1.041012 -0.681625 -0.000001 0.000000 -0.010468 68.961025 5.779113 5.012210 25.456959 -7.355615 0.000001 3.888529 179.009300 5.831682 -0.000005 -0.000004 -1.355370 -9.599901 4.870536 0.607383 -0.000004 -0.000003 -0.183040 72.416370 -7.400858 -0.432389 25.456965 7.355615 -0.000001 
54.010296 -17.066912 94.313995 -6.698568 0.101784 -2.604996 -1.536204 0.226491 0.363501 0.929615 0.437023 0.726215 2.574648 0.445668 0.720775 20.415649 -3.011705 -1.470799 -15.723678 -9.966469 -1.866812 -16.585320 -75.874973 -19.829830 120.169337 -59.120697 53.649299 0.000000 -0.000000 -0.000002 117.195145 13.514101 -34.544133 -0.000002 0.000008 -2.999998 -5.000203 -7.998809 0.000176 3.818566 64.902227 -3.579831 -39.325852 116.018044 53.054509 0.000000 -0.000012 -0.000002 114.547941 -1.794658 12.821474 0.000001 -0.000009 3.000000 -4.999723 7.998748 -0.000041 3.326287 -176.237336 1.190643 -179.999991 0.000005 -1.015002 171.714234 -1.042016 -0.681744 -0.000002 0.000000 -0.010410 68.958369 5.776928 5.017241 25.456959 -7.355613 0.000001 3.894827 179.019272 5.839795 -0.000005 -0.000004 -1.355340 -9.583550 4.870505 0.606768 -0.000004 -0.000003 -0.182616 72.413857 -7.400041 -0.434526 25.456962 7.355616 -0.000001 
54.014397 -17.068714 94.314095 -6.693882 0.095069 -2.615432 -1.537292 0.226231 0.362934 0.927203 0.436174 0.724928 2.572239 0.444824 0.719492 20.403706 -2.948584 -1.476021 -15.681872 -10.019426 -1.868612 -16.534088 -75.839750 -19.774149 120.244196 -59.123040 53.952730 0.000000 -0.000000 0.000001 117.332172 13.471209 -34.589762 -0.000001 0.000006 -3.000000 -5.000201 -7.998817 0.000176 3.812731 64.929110 -3.569478 -39.344745 116.009834 52.838931 0.000000 -0.000012 -0.000001 114.564675 -1.765314 12.732361 0.000003 -0.000008 3.000001 -4.999722 7.998747 -0.000043 3.321078 -176.226325 1.195687 -179.999991 0.000005 -1.014005 171.715710 -1.043007 -0.681862 -0.000001 0.000000 -0.010352 68.955766 5.774921 5.022004 25.456960 -7.355615 0.000001 3.901639 179.029258 5.847766 -0.000005 -0.000004 -1.355290 -9.567377 4.870241 0.606129 -0.000004 -0.000003 -0.182224 72.411132 -7.399239 -0.436882 25.456965 7.355614 -0.000001 
54.006096 -17.062418 94.314293 -6.689707 0.088780 -2.625277 -1.538273 0.226084 0.362637 0.925032 0.435726 0.724249 2.570068 0.444384 0.718816 20.393546 -2.893259 -1.481090 -15.644007 -10.065648 -1.870548 -16.497675 -75.814820 -19.734571 120.297554 -59.128237 54.221569 -0.000000 0.000002 -0.000001 117.470757 13.432720 -34.641538 -0.000002 0.000006 -2.999998 -5.000203 -7.998817 0.000174 3.803267 64.951178 -3.555695 -39.355109 116.007211 52.629428 -0.000002 -0.000013 -0.000003 114.577673 -1.737366 12.647483 0.000001 -0.000009 3.000001 -4.999722 7.998747 -0.000042 3.316587 -176.216340 1.200596 -179.999991 0.000005 -1.014005 171.717240 -1.043011 -0.681834 -0.000002 -0.000000 -0.010294 68.953403 5.773041 5.026476 25.456957 -7.355615 0.000002 3.908839 179.038246 5.855489 -0.000005 -0.000004 -1.355240 -9.551571 4.869738 0.605475 -0.000004 -0.000003 -0.181871 72.408406 -7.398435 -0.439139 25.456960 7.355615 -0.000001 
54.013496 -17.069016 94.314491 -6.686077 0.083016 -2.634398 -1.539163 0.226065 0.362651 0.923127 0.435736 0.724271 2.568157 0.444407 0.718837 20.385282 -2.847336 -1.485973 -15.610513 -10.103656 -1.872605 -16.478270 -75.801760 -19.713471 120.319574 -59.138455 54.442444 -0.000001 0.000002 -0.000001 117.612019 13.399142 -34.704802 -0.000001 0.000008 -3.000000 -5.000200 -7.998816 0.000177 3.789658 64.967352 -3.538045 -39.358029 116.009342 52.428775 -0.000000 -0.000012 -0.000003 114.586546 -1.710795 12.566825 0.000001 -0.000011 3.000000 -4.999724 7.998746 -0.000041 3.312859 -176.206327 1.205383 -179.999991 0.000004 -1.014004 171.718824 -1.044002 -0.681948 -0.000001 0.000000 -0.010237 68.951292 5.771328 5.030567 25.456957 -7.355614 0.000001 3.916311 179.047221 5.862977 -0.000005 -0.000004 -1.355180 -9.536344 4.868927 0.604798 -0.000004 -0.000003 -0.181567 72.405579 -7.397636 -0.441503 25.456964 7.355615 -0.000001 
54.016697 -17.066412 94.313492 -6.683188 0.077575 -2.643130 -1.539941 0.226186 0.362961 0.921510 0.436262 0.724965 2.566539 0.444947 0.719528 20.379362 -2.808717 -1.490692 -15.581584 -10.135466 -1.874916 -16.473561 -75.799179 -19.708361 120.319643 -59.151255 54.631265 -0.000000 0.000000 0.000000 117.757242 13.368790 -34.776277 -0.000002 0.000008 -3.000000 -5.000198 -7.998811 0.000178 3.771444 64.978718 -3.515858 -39.357558 116.016364 52.235087 -0.000002 -0.000012 -0.000002 114.591429 -1.684783 12.489239 -0.000001 -0.000009 2.999998 -4.999722 7.998747 -0.000041 3.310122 -176.196341 1.210144 -179.999991 0.000005 -1.012993 171.720518 -1.044994 -0.682061 -0.000002 -0.000000 -0.010178 68.949223 5.769756 5.034584 25.456962 -7.355615 0.000001 3.924913 179.056209 5.870522 -0.000005 -0.000004 -1.355100 -9.520798 4.867717 0.604069 -0.000004 -0.000003 -0.181297 72.402539 -7.396854 -0.443981 25.456962 7.355615 -0.000001 
